# xmcd CD database file
#
# Track frame offsets:
#	150
#	21336
#	40209
#	59321
#	73047
#	90925
#	107465
#	119300
#	132825
#	147981
#	164064
#	181388
#	196650
#	215287
#
# Disc length: 3093 seconds
#
# Revision: 0
# Processed by: cddbd v1.5.1PL2 Copyright (c) Steve Scherf et al.
# Submitted via: CDex 1.51
#
DISCID=c20c130e
DTITLE=Wally Sanderson - Treasured Memories
DYEAR=1990
DGENRE=Country
TTITLE0=Some Days Are Diamonds
TTITLE1=Homestead Of Our Dreams
TTITLE2=The Droving Days
TTITLE3=Never Was At All
TTITLE4=Your My Best Friend
TTITLE5=Crystal Chandeliers
TTITLE6=True Aussie Woman
TTITLE7=Catching Scrubbers
TTITLE8=Leave Him In The Longyard
TTITLE9=Fire Of Gidgee Coal
TTITLE10=The Campdraft
TTITLE11=There Goes My Everything
TTITLE12=All I Have To Offer You Is Me
TTITLE13=Three Rivers Hotel
EXTD=YEAR: 1990
EXTT0=
EXTT1=
EXTT2=
EXTT3=
EXTT4=
EXTT5=
EXTT6=
EXTT7=
EXTT8=
EXTT9=
EXTT10=
EXTT11=
EXTT12=
EXTT13=
PLAYORDER=
